<mxfile host="app.diagrams.net" modified="2024-07-13T07:38:38.963Z" agent="Mozilla/5.0 (Macintosh; Intel Mac OS X 10_15_7) AppleWebKit/537.36 (KHTML, like Gecko) Chrome/126.0.0.0 Safari/537.36" version="24.6.5" etag="2dg4qJ9fQ699LE6_Fl3Q" type="github">
  <diagram name="第 1 页" id="JFrIuMTUkUQBVdjCb1XR">
    <mxGraphModel>
      <root>
        <mxCell id="0" />
        <mxCell id="1" parent="0" />
      </root>
    </mxGraphModel>
  </diagram>
</mxfile>
